HIERARCHY
ROOT Hips
{
	OFFSET 0.000000 0.000000 0.000000
	CHANNELS 6 Xposition Yposition Zposition Xrotation Yrotation Zrotation
	JOINT LeftUpLeg_virtual
	{
		OFFSET 0.000000 0.000000 0.000000
		CHANNELS 3 Xrotation Yrotation Zrotation
		JOINT LeftUpLeg
		{
			OFFSET 11.394100 -6.187798 -0.413800
			CHANNELS 3 Xrotation Yrotation Zrotation
			JOINT LeftLeg
			{
				OFFSET 0.430247 -32.302673 3.732800
				CHANNELS 3 Xrotation Yrotation Zrotation
				JOINT LeftFoot
				{
					OFFSET -0.430247 -48.264931 -6.423300
					CHANNELS 3 Xrotation Yrotation Zrotation
					JOINT LeftToeBase
					{
						OFFSET 4.230900 -16.068199 23.438400
						CHANNELS 3 Xrotation Yrotation Zrotation
						JOINT LeftToe_End
						{
							OFFSET 4.510700 0.695400 19.974600
							CHANNELS 3 Xrotation Yrotation Zrotation
							End Site
							{
								OFFSET 0 0 0
							}
						}
					}
				}
			}
		}
	}
	JOINT RightUpLeg_virtual
	{
		OFFSET 0.000000 0.000000 0.000000
		CHANNELS 3 Xrotation Yrotation Zrotation
		JOINT RightUpLeg
		{
			OFFSET -11.333700 -6.187798 -0.413800
			CHANNELS 3 Xrotation Yrotation Zrotation
			JOINT RightLeg
			{
				OFFSET -0.430392 -32.302628 3.733000
				CHANNELS 3 Xrotation Yrotation Zrotation
				JOINT RightFoot
				{
					OFFSET 0.430392 -48.264973 -6.423500
					CHANNELS 3 Xrotation Yrotation Zrotation
					JOINT RightToeBase
					{
						OFFSET -4.230900 -16.068199 23.438400
						CHANNELS 3 Xrotation Yrotation Zrotation
						JOINT RightToe_End
						{
							OFFSET -4.510700 0.695400 19.974600
							CHANNELS 3 Xrotation Yrotation Zrotation
							End Site
							{
								OFFSET 0 0 0
							}
						}
					}
				}
			}
		}
	}
	JOINT Spine_virtual
	{
		OFFSET 0.000000 0.000000 0.000000
		CHANNELS 3 Xrotation Yrotation Zrotation
		JOINT Spine
		{
			OFFSET -0.002400 12.777504 0.315300
			CHANNELS 3 Xrotation Yrotation Zrotation
			JOINT Spine1
			{
				OFFSET -0.002067 5.816869 0.032633
				CHANNELS 3 Xrotation Yrotation Zrotation
				JOINT Spine1_split
				{
					OFFSET -0.002067 5.816869 0.032633
					CHANNELS 3 Xrotation Yrotation Zrotation
					JOINT Spine2
					{
						OFFSET -0.002067 5.816869 0.032633
						CHANNELS 3 Xrotation Yrotation Zrotation
						JOINT Neck_virtual
						{
							OFFSET 0.000000 0.000000 0.000000
							CHANNELS 3 Xrotation Yrotation Zrotation
							JOINT Neck
							{
								OFFSET -0.003700 21.199493 -0.826900
								CHANNELS 3 Xrotation Yrotation Zrotation
								JOINT Head
								{
									OFFSET 0.000000 20.442200 4.834800
									CHANNELS 3 Xrotation Yrotation Zrotation
									JOINT HeadTop_End
									{
										OFFSET 0.000000 34.668396 4.968400
										CHANNELS 3 Xrotation Yrotation Zrotation
										End Site
										{
											OFFSET 0 0 0
										}
									}
								}
							}
						}
						JOINT LeftShoulder_virtual
						{
							OFFSET 0.000000 0.000000 0.000000
							CHANNELS 3 Xrotation Yrotation Zrotation
							JOINT LeftShoulder
							{
								OFFSET 3.288150 8.794197 -1.372250
								CHANNELS 3 Xrotation Yrotation Zrotation
								JOINT LeftShoulder_split
								{
									OFFSET 3.288150 8.794197 -1.372250
									CHANNELS 3 Xrotation Yrotation Zrotation
									JOINT LeftArm
									{
										OFFSET 11.953299 -2.279007 -0.146200
										CHANNELS 3 Xrotation Yrotation Zrotation
										JOINT LeftForeArm
										{
											OFFSET 18.448900 0.000000 0.000000
											CHANNELS 3 Xrotation Yrotation Zrotation
											JOINT LeftHand
											{
												OFFSET 29.527798 0.000000 0.000000
												CHANNELS 3 Xrotation Yrotation Zrotation
												End Site
												{
													OFFSET 0 0 0
												}
											}
										}
									}
								}
							}
						}
						JOINT RightShoulder_virtual
						{
							OFFSET 0.000000 0.000000 0.000000
							CHANNELS 3 Xrotation Yrotation Zrotation
							JOINT RightShoulder
							{
								OFFSET -3.249400 8.794197 -1.372250
								CHANNELS 3 Xrotation Yrotation Zrotation
								JOINT RightShoulder_split
								{
									OFFSET -3.249400 8.794197 -1.372250
									CHANNELS 3 Xrotation Yrotation Zrotation
									JOINT RightArm
									{
										OFFSET -11.953299 -2.279007 -0.146200
										CHANNELS 3 Xrotation Yrotation Zrotation
										JOINT RightForeArm
										{
											OFFSET -18.448900 0.000000 0.000000
											CHANNELS 3 Xrotation Yrotation Zrotation
											JOINT RightHand
											{
												OFFSET -29.527802 0.000000 0.000000
												CHANNELS 3 Xrotation Yrotation Zrotation
												End Site
												{
													OFFSET 0 0 0
												}
											}
										}
									}
								}
							}
						}
					}
				}
			}
		}
	}
}
MOTION
Frames: 4
Frame Time: 0.03333333
0.006970 97.967796 -49.926502 0.000000 0.000000 0.000000 174.032564 -66.147069 176.492143 -31.126374 9.413231 18.295058 33.874900 -1.837526 -2.632360 -1.841702 -1.110949 0.506126 3.161495 8.103498 -13.615016 0.000000 0.000000 0.000000 173.452367 -65.020122 176.301977 -11.953871 -10.325153 5.989007 17.489983 6.958030 -3.540402 -5.369242 2.044570 -7.513321 -2.900414 -12.550185 -2.696224 0.000000 0.000000 0.000000 173.027229 -66.392833 175.056710 3.500397 2.555577 4.187041 -2.793366 1.410021 -2.322014 0.688913 -1.356675 0.300720 0.000000 0.000000 0.000000 -4.909659 1.661455 -2.005297 1.858664 19.783493 7.173403 5.481701 27.668697 -15.513441 0.000000 0.000000 0.000000 -5.019858 2.238573 -2.181679 0.847633 -0.004245 0.929209 -0.399002 -1.048751 -1.059056 12.825992 0.173464 -67.067786 7.667537 -21.443232 -7.997025 0.000000 0.000000 0.000000 -4.214794 1.917652 -2.771872 2.708184 -5.333008 17.658932 -5.079191 -0.790084 -0.474030 10.724689 32.901595 54.001514 15.094680 29.872075 -1.161294 0.000000 0.000000 0.000000 
-0.653561 98.428673 -51.302715 0.000000 0.000000 0.000000 173.787388 -60.862272 176.293220 -31.077607 2.266638 13.559057 34.071039 -2.130437 -1.931647 -0.533397 -0.268708 0.242667 1.152588 9.109761 -14.588709 0.000000 0.000000 0.000000 173.242325 -59.011475 176.061964 -11.257852 -8.555303 7.473337 18.002287 9.446226 -3.007332 -5.152852 1.586289 -8.765899 -3.780573 -12.022682 -4.261265 0.000000 0.000000 0.000000 173.258786 -60.650905 174.994460 3.755571 3.161441 4.134382 -2.697668 1.913873 -2.422023 0.750009 -1.095580 0.401395 0.000000 0.000000 0.000000 -4.799963 2.119444 -2.190475 1.820254 18.074473 7.102474 4.706124 25.218349 -14.358753 0.000000 0.000000 0.000000 -4.980674 2.699642 -2.277222 0.769362 -0.146532 1.275732 -0.120027 -1.136903 -0.877955 13.861787 1.048339 -68.638128 8.696289 -20.357932 -8.073238 0.000000 0.000000 0.000000 -4.116477 2.362924 -2.905745 2.716519 -5.587009 17.701882 -4.994977 -1.036829 -0.289604 9.850608 35.009135 53.975269 15.310342 28.888442 -1.580011 0.000000 0.000000 0.000000 
-1.372422 99.032097 -52.744289 0.000000 0.000000 0.000000 173.479592 -55.692635 176.041350 -31.669965 -4.189975 8.832528 32.976549 -2.758305 -1.038837 0.691734 0.020602 -0.330586 -2.881843 10.318497 -15.422878 0.000000 0.000000 0.000000 173.239101 -53.205422 176.146986 -10.083910 -7.248849 8.792055 19.067549 11.515521 -2.496496 -5.689151 1.250987 -10.749523 -3.384531 -11.354630 -5.655128 0.000000 0.000000 0.000000 173.466478 -55.075934 175.001058 4.000064 3.603050 3.782535 -2.511399 2.293741 -2.303795 0.846019 -0.727770 0.420756 0.000000 0.000000 0.000000 -4.567943 2.488505 -2.165248 1.799716 16.059090 6.641995 3.401575 21.922114 -12.545232 0.000000 0.000000 0.000000 -4.855371 3.062322 -2.137417 0.689508 -0.260727 1.495750 0.167862 -1.315118 -0.734267 14.622916 1.660064 -70.172230 9.447608 -18.466557 -8.263415 0.000000 0.000000 0.000000 -3.951964 2.702142 -2.796473 2.735437 -5.910646 17.547712 -4.873555 -1.200976 -0.058742 8.816463 37.330727 54.261133 15.359774 27.641287 -1.975368 0.000000 0.000000 0.000000 
-2.146613 99.630424 -54.141796 0.000000 0.000000 0.000000 173.397712 -50.438509 176.081184 -32.929804 -9.361310 4.691187 31.156185 -3.657193 -0.215493 1.770120 -0.151333 -1.236834 -6.848445 11.509912 -16.614141 0.000000 0.000000 0.000000 173.415648 -47.660158 176.441299 -8.816802 -6.270343 9.848095 20.870254 13.477652 -2.109527 -6.019115 1.173927 -12.829551 -3.110032 -10.563234 -6.852652 0.000000 0.000000 0.000000 173.764671 -49.764991 175.216222 4.294899 3.849297 3.202012 -2.245584 2.531882 -1.999419 0.994406 -0.267145 0.310524 0.000000 0.000000 0.000000 -4.222658 2.742958 -1.945942 1.829245 13.766089 5.853389 1.816350 17.896819 -10.290906 0.000000 0.000000 0.000000 -4.654482 3.307857 -1.797173 0.613283 -0.264474 1.552714 0.489568 -1.623228 -0.630391 15.234971 2.144654 -71.491761 9.853762 -16.340249 -8.551106 0.000000 0.000000 0.000000 -3.737561 2.914104 -2.479868 2.769299 -6.299356 17.156597 -4.684373 -1.206719 0.239511 7.649802 39.663311 54.951061 15.282270 26.495407 -2.380974 0.000000 0.000000 0.000000 
